<svg width="256" height="256" viewBox="0 0 256 256" xmlns="http://www.w3.org/2000/svg">
  <rect width="256" height="256" rx="40" fill="#FF6A1A"></rect>

  <!-- QUESTION MARK — 40% larger, left 15%, up 10% -->
  <g transform="translate(-38.4,-25.6) translate(130,135) scale(1.40) translate(-130,-135)">
    <path fill="#FFFFFF" d="M136.828 160H118.17v-12.497c0-5.546 1.097-10.194 3.292-13.944 2.194-3.75 5.472-7.017 9.833-9.803 4.36-2.786 7.338-5.078 8.933-6.875 1.595-1.797 2.392-3.885 2.392-6.264 0-2.934-1.078-5.3-3.233-7.097C137.329 101.723 134.597 100.825 131 100.825c-3.891 0-6.971 1.089-9.24 3.267-2.27 2.178-3.619 5.322-4.047 9.433l-17.593-2.194c.623-8.976 3.99-15.9 10.106-20.773C116.342 85.684 123.045 83 131 83c8.988 0 16.198 2.391 21.619 7.174 5.421 4.783 8.132 11.21 8.132 19.282 0 4.302-.805 8.173-2.417 11.612-1.611 3.439-3.845 6.348-6.7 8.725-2.856 2.378-6.214 4.672-10.073 6.882-3.86 2.21-6.399 4.453-7.617 6.729-1.218 2.275-1.827 5.386-1.827 9.331V160ZM130 188c-2.934 0-5.429-.98-7.484-2.941-2.055-1.962-3.083-4.42-3.083-7.375 0-2.934 1.028-5.38 3.083-7.338C124.571 168.407 127.066 167.428 130 167.428c2.955 0 5.472.979 7.55 2.937 2.078 1.958 3.117 4.404 3.117 7.338 0 2.955-1.039 5.413-3.117 7.375C135.472 187.02 132.955 188 130 188Z"></path>
  </g>

  <!-- ARROW (block style, medium tail, rotated +45° clockwise) -->
  <g transform="translate(160,190) rotate(45) translate(-160,-190)">
    <path fill="#FFFFFF" d="M200 188H150V172L120 196L150 220V204H200Z"></path>
  </g>
</svg>
